<svg xmlns="http://www.w3.org/2000/svg" class="logo-large" viewBox="0 0 160 40">
            <defs>
                <style>.logo-large-a{fill:#00a84f;}.logo-large-b{fill:#006cb7;}.logo-large-c{fill:#fff;}.logo-large-d{fill:#000}</style>
            </defs>
            <path class="logo-large-a" d="M0,26.066H101.227V16.6l10.455,19.779V26.066H160V47.54H0V26.066" transform="translate(0 -4.874)"/>
            <path class="logo-large-b" d="M111.682,21.333H160V0H0V21.333H101.227V11.868l10.455,19.779V21.333"/>
            <path class="logo-large-c" d="M48.147,42.834a7.417,7.417,0,1,0,0-14.834,7.418,7.418,0,0,0,0,14.834" transform="translate(-11.979 -8.221)"/>
            <path class="logo-large-c" d="M70.533,12.4H49.2A21.373,21.373,0,0,1,59.867,30.908L70.533,12.4" transform="translate(-14.445 -3.641)"/>
            <path class="logo-large-c" d="M40.333,12.4H19A21.227,21.227,0,0,1,29.667,30.908L40.333,12.4" transform="translate(-5.578 -3.641)"/>
            <path class="logo-large-c" d="M17.947,42.834A7.418,7.418,0,1,0,10.6,35.417a7.356,7.356,0,0,0,7.347,7.417" transform="translate(-3.112 -8.221)"/>
            <path class="logo-large-c" d="M128.8,24.751c0,1.7-.141,3.532-.212,4.1-.424,5.157-1.766,9.113-8.124,9.113-6.146,0-7.77-4.168-8.053-9.113,0-.283-.212-1.907-.212-4.168a37.017,37.017,0,0,1,.212-4.168c.353-4.592,1.7-9.113,8.053-9.113,6.781,0,7.77,4.309,8.124,9.113a41.228,41.228,0,0,1,.212,4.238m-4.733-.071c0-2.331-.141-3.461-.141-4.168,0-2.4-.636-4.662-3.32-4.662-2.826,0-3.32,2.26-3.32,4.662,0,.636-.141,1.837-.141,4.168,0,2.19.141,3.673.141,4.168.071,3.461,1.2,4.662,3.249,4.662,2.119,0,3.32-1.2,3.391-4.733C123.926,28.283,124.068,27.153,124.068,24.68Z" transform="translate(-32.942 -3.347)"/>
            <path class="logo-large-c" d="M100.657,12.4l-4.1,8.9-3.744-8.9H87.8l6.428,14.905V37.689H98.82V27.234L105.6,12.4h-4.945" transform="translate(-25.778 -3.641)"/>
            <path class="logo-large-c" d="M166.1,12.4V37.689h13.351V33.1h-8.759V27.234h7.982V22.643h-7.982V16.992h8.759V12.4H166.1" transform="translate(-48.767 -3.641)"/>
            <path class="logo-large-c" d="M198.061,24.974,204.136,12.4H199.05l-3.532,7.276L191.986,12.4H186.9l6.075,12.574L186.9,37.689h5.015l3.6-7.417,3.6,7.417h5.086l-6.146-12.715" transform="translate(-54.874 -3.641)"/>
            <path class="logo-large-c" d="M150.467,12.4V26.175L143.826,12.4H139.8V37.689h4.592v-13.7l6.57,13.7h4.1V12.4h-4.592" transform="translate(-41.045 -3.641)"/>
            <path class="logo-large-c" d="M212.2,45.454a1.554,1.554,0,1,1,1.554,1.554,1.568,1.568,0,0,1-1.554-1.554m1.554,1.413a1.413,1.413,0,1,0-1.413-1.413A1.417,1.417,0,0,0,213.754,46.867Zm-.424-2.119v.636h.565a.259.259,0,0,0,.283-.283c0-.283-.141-.353-.283-.353Zm-.212-.141h.777c.283,0,.494.071.565.424a.5.5,0,0,1-.212.424c.141.141.212.141.212.424,0,.212,0,.283.071.353V46.3h-.353c0-.071-.071-.141-.071-.212,0-.212.071-.494-.283-.494h-.565V46.3h-.212v-1.7Z" transform="translate(-62.302 -12.889)"/>
        </svg>  